{"title":"3 horny teens in hotel orgy","uid":6650226,"size":54619681,"categoryP":"porn","categoryS":"movie_clips","magnet":"?xt=urn:btih:8466aa9a96ee362fa59748899b0ed89f308ca457&amp;dn=3+horny+teens+in+hotel+orgy&amp;tr=udp%3A%2F%2Ftracker.openbittorrent.com%3A80&amp;tr=udp%3A%2F%2Fopen.demonii.com%3A1337&amp;tr=udp%3A%2F%2Ftracker.coppersurfer.tk%3A6969&amp;tr=udp%3A%2F%2Fexodus.desync.com%3A6969","seeders":0,"leechers":0,"uploader":"stu181","files":1,"time":1315117973,"description":"Format : MPEG-PS\nFile size : 52.1 MiB\nDuration : 5mn 51s\nOverall bit rate : 1 243 Kbps\n\nVideo\nID : 224 (0xE0)\nFormat : MPEG Video\nFormat version : Version 1\nFormat settings, BVOP : Yes\nFormat settings, Matrix : Default\nDuration : 5mn 51s\nBit rate : 1 186 Kbps\nMaximum bit rate : 1 196 Kbps\nWidth : 320 pixels\nHeight : 240 pixels\nDisplay aspect ratio : 4:3\nFrame rate : 29.970 fps\nColor space : YUV\nBit depth : 8 bits\nScan type : Progressive\nCompression mode : Lossy\nBits/(Pixel*Frame) : 0.515\nStream size : 49.7 MiB (95%)\n\nAudio\nID : 192 (0xC0)\nFormat : MPEG Audio\nFormat version : Version 1\nFormat profile : Layer 2\nDuration : 5mn 51s\nBit rate mode : Constant\nBit rate : 32.0 Kbps\nChannel(s) : 1 channel\nSampling rate : 44.1 KHz\nCompression mode : Lossy\nStream size : 1.34 MiB (3%)\n","torrent":{"xt":"urn:btih:8466aa9a96ee362fa59748899b0ed89f308ca457","amp;dn":"3+horny+teens+in+hotel+orgy","amp;tr":["udp%3A%2F%2Ftracker.openbittorrent.com%3A80","udp%3A%2F%2Fopen.demonii.com%3A1337","udp%3A%2F%2Ftracker.coppersurfer.tk%3A6969","udp%3A%2F%2Fexodus.desync.com%3A6969"],"infoHash":"8466aa9a96ee362fa59748899b0ed89f308ca457","infoHashBuffer":{"type":"Buffer","data":[132,102,170,154,150,238,54,47,165,151,72,137,155,14,216,159,48,140,164,87]},"announce":[],"urlList":[]}}